<?xml version="1.0" encoding="UTF-8" standalone="no"?>
<!-- Created with Inkscape (http://www.inkscape.org/) -->
<svg id="svg2" xmlns:rdf="http://www.w3.org/1999/02/22-rdf-syntax-ns#" xmlns="http://www.w3.org/2000/svg" height="39.678mm" width="195.82mm" version="1.1" xmlns:cc="http://creativecommons.org/ns#" xmlns:dc="http://purl.org/dc/elements/1.1/" viewBox="0 0 693.86712 140.59102">
 <g id="layer1" transform="translate(-212.12 -647.04)">
  <g font-size="40px" font-family="sans-serif" fill="#000000">
   <flowRoot id="flowRoot3336" style="word-spacing:0px;letter-spacing:0px" xml:space="preserve" transform="translate(157.23 402.12)" line-height="125%"><flowRegion id="flowRegion3338"><rect id="rect3340" y="210.73" width="967.73" x="155.56" height="230.31"/></flowRegion><flowPara id="flowPara3342" font-size="125px" font-family="Diamonds are forever"><flowSpan id="flowSpan3362" font-family="Diamonds are forever"/><flowSpan id="flowSpan3364"> CLEANING</flowSpan></flowPara></flowRoot>
   <flowRoot id="flowRoot3344" style="word-spacing:0px;letter-spacing:0px" xml:space="preserve" transform="translate(0 308.27)" line-height="125%"><flowRegion id="flowRegion3346"><rect id="rect3348" y="202.65" width="517.2" x="30.305" height="159.6"/></flowRegion><flowPara id="flowPara3350"/></flowRoot>
   <flowRoot id="flowRoot3352" style="word-spacing:0px;letter-spacing:0px" xml:space="preserve" transform="translate(0 308.27)" line-height="125%"><flowRegion id="flowRegion3354"><rect id="rect3356" y="285.49" width="212.13" x="339.41" height="68.69"/></flowRegion><flowPara id="flowPara3358"/></flowRoot>
   <flowRoot id="flowRoot3366" style="word-spacing:0px;letter-spacing:0px" xml:space="preserve" transform="translate(154.98 498.27)" line-height="125%"><flowRegion id="flowRegion3368"><rect id="rect3370" y="114.09" width="197.14" x="57.143" height="147.14"/></flowRegion><flowPara id="flowPara3372" font-size="125px" font-family="&apos;Diamonds are forever&apos;">BT</flowPara></flowRoot>
  </g>
  <g id="flowRoot3374" transform="translate(181.43 288.27)">
   <path id="path3383" d="m425.55 463.26-3.7354 3.5644q-2.6611-3.9062-6.1035-3.9062-2.4902 0-4.126 1.5381-1.6357 1.5381-1.6357 3.8574 0 1.8555 1.123 3.1982 0.56153 0.63477 1.6358 1.4404 1.0986 0.80567 2.7344 1.7822 4.8584 2.832 6.4941 5.127 1.6602 2.3193 1.6602 6.0791 0 4.8828-3.2227 7.9102-3.1738 3.0273-8.374 3.0273-4.1992 0-7.1045-1.8066-1.4648-0.90332-2.7344-2.3438-1.2695-1.4648-2.4414-3.54l4.248-2.8809q1.7334 3.0518 3.3936 4.1992 1.6602 1.1475 4.3213 1.1475 2.9541 0 4.6142-1.5625 1.6846-1.5625 1.6846-4.4434 0-1.9775-1.2207-3.3447-0.61035-0.70801-1.831-1.5869-1.1963-0.8789-3.0518-1.9775-4.248-2.5146-5.9326-4.7852-1.6113-2.2705-1.6113-5.6885 0-4.5654 3.1738-7.5684 3.1738-3.0273 8.0078-3.0273 3.1494 0 5.3711 1.2695 2.2705 1.2695 4.6631 4.3213z"/>
   <path id="path3385" d="m467.73 458.45-0.63477 5.2002h-13.843l-1.1963 9.7656h13.843l-0.58594 4.834h-13.843l-1.5625 12.695h13.843l-0.65918 5.2002h-19.409l4.6387-37.695h19.409z"/>
   <path id="path3387" d="m498.78 480.25 9.4727 15.894h-5.9082l-8.9356-15.503h-2.0264l-1.9043 15.503h-5.5908l4.6387-37.695h7.3975q3.6133 0 5.7373 0.65918 2.0996 0.61035 3.6621 2.2461 2.9541 3.0274 2.9541 7.8125 0 8.7646-9.4971 11.084zm-5.3223-16.602-1.4648 12.109h2.5635q2.832 0 4.2236-0.53711 1.4893-0.53711 2.4902-1.831 1.3672-1.8066 1.3672-4.248 0-2.8564-1.6602-4.1748-1.6357-1.3184-5.1758-1.3184h-2.3438z"/>
   <path id="path3389" d="m553.51 459.96-21.46 39.404-11.865-39.404h5.6641l7.8125 26.27 13.818-26.27h6.0303z"/>
   <path id="path3391" d="m577.65 459.96-4.6387 37.695h-5.5908l4.6387-37.695h5.5908z"/>
   <path id="path3393" d="m624.07 462.87-0.75683 6.1035q-4.9072-4.9805-11.694-4.9805-5.9814 0-9.668 4.248-3.7109 4.2236-3.7109 11.011 0 6.3476 3.5645 9.9121 3.54 3.54 10.01 3.54 5.3955 0 9.5215-3.3203l-0.80567 6.6162q-5.2002 1.9287-9.6924 1.9287-8.2031 0-13.208-5.2002-5.0049-5.1514-5.0049-13.721 0-8.7402 5.3223-14.502 5.3467-5.7617 13.428-5.7617 6.3721 0 12.695 4.126z"/>
   <path id="path3395" d="m664.99 459.68-0.63477 5.2002h-13.843l-1.1963 9.7656h13.843l-0.58594 4.834h-13.843l-1.5625 12.695h13.843l-0.65918 5.2002h-19.409l4.6387-37.695h19.409z"/>
   <path id="path3397" d="m706.66 464.57-3.7354 3.5644q-2.6611-3.9062-6.1035-3.9062-2.4902 0-4.126 1.5381-1.6357 1.5381-1.6357 3.8574 0 1.8555 1.123 3.1982 0.56153 0.63477 1.6357 1.4404 1.0986 0.80567 2.7344 1.7822 4.8584 2.832 6.4941 5.127 1.6602 2.3193 1.6602 6.0791 0 4.8828-3.2227 7.9102-3.1738 3.0273-8.374 3.0273-4.1992 0-7.1045-1.8066-1.4648-0.90332-2.7344-2.3438-1.2695-1.4648-2.4414-3.54l4.248-2.8809q1.7334 3.0518 3.3936 4.1992 1.6602 1.1475 4.3213 1.1475 2.9541 0 4.6143-1.5625 1.6846-1.5625 1.6846-4.4434 0-1.9775-1.2207-3.3447-0.61035-0.70801-1.8311-1.5869-1.1963-0.8789-3.0518-1.9775-4.248-2.5146-5.9326-4.7852-1.6113-2.2705-1.6113-5.6885 0-4.5654 3.1738-7.5684 3.1738-3.0273 8.0078-3.0273 3.1494 0 5.3711 1.2695 2.2705 1.2695 4.6631 4.3213z"/>
  </g>
 </g>
</svg>
